<svg width="24" height="24" viewBox="0 0 24 24" fill="none" xmlns="http://www.w3.org/2000/svg">
    <path fill-rule="evenodd" clip-rule="evenodd" d="M12 22C6.477 22 2 17.523 2 12S6.477 2 12 2s10 4.477 10 10-4.477 10-10 10zm-2.29-2.333A17.9 17.9 0 0 1 8.027 13H4.062a8.008 8.008 0 0 0 5.648 6.667zm2.29.085A15.915 15.915 0 0 1 10.03 13h3.94A15.906 15.906 0 0 1 12 19.752zM19.938 13h-3.965a17.9 17.9 0 0 1-1.683 6.667A8.008 8.008 0 0 0 19.938 13zM8.027 11H4.062A8.008 8.008 0 0 1 9.71 4.333 17.9 17.9 0 0 0 8.027 11zm5.942 0A15.904 15.904 0 0 0 12 4.248 15.906 15.906 0 0 0 10.03 11h3.939zm2.004 0a17.9 17.9 0 0 0-1.683-6.667A8.008 8.008 0 0 1 19.938 11h-3.965z" fill="#91919C"/>
</svg>
